# xmcd
#
# Track frame offsets: 
#        183
#        14918
#        26855
#        40688
#        57683
#        69420
#        79345
#        91530
#        110030
#        132765
#        171133
#        185908
#        195273
#        208770
#        220658
#        236470
#        248490
#        267918
#        293005
#
# Disc length: 4204 seconds
#
# Revision: 8
# Processed by: cddbd v1.5.2PL0 Copyright (c) Steve Scherf et al.
# Submitted via: ExactAudioCopyFreeDBPlugin 1.0
#
DISCID=13106a13
DTITLE=Who - WHO'S BETTER, WHO'S BEST  1988
DYEAR=1988
DGENRE=Rock
TTITLE0=My Generation  1965
TTITLE1=Anyway, Anyhow, Anywhere  1965
TTITLE2=The Kids Are Alright  1965
TTITLE3=Substitute  1966
TTITLE4=I'm A Boy  1966
TTITLE5=Happy Jack  1966
TTITLE6=Pictures of Lily  1967
TTITLE7=I Can See For Miles  1967
TTITLE8=Who Are You  1978
TTITLE9=Won't Get Fooled Again  1971
TTITLE10=Magic Bus  1968
TTITLE11=I Can't Explain  1965
TTITLE12=Pinball Wizard  1969
TTITLE13=I'm Free  1969
TTITLE14=See Me, Feel Me  1969
TTITLE15=Squeeze Box  1975
TTITLE16=Join Together  1972
TTITLE17=You Better, You Bet  1981
TTITLE18=Baba O'Riley  1971
EXTD=
EXTT0=
EXTT1=
EXTT2=
EXTT3=
EXTT4=
EXTT5=
EXTT6=
EXTT7=
EXTT8=
EXTT9=
EXTT10=
EXTT11=
EXTT12=
EXTT13=
EXTT14=
EXTT15=
EXTT16=
EXTT17=
EXTT18=
PLAYORDER=
